# xmcd
#
# Track frame offsets: 
#        150
#        15955
#        24431
#        35590
#        46090
#        57661
#        70528
#        82594
#        91449
#        103428
#        115608
#        125776
#        133583
#        152558
#        176573
#        206936
#        219827
#        243518
#        256419
#        268095
#        283056
#        294769
#        306565
#        317211
#
# Disc length: 4413 seconds
#
# Revision: 0
# Processed by: cddbd v1.5.2PL0 Copyright (c) Steve Scherf et al.
# Submitted via: ExactAudioCopy v0.99pb5
#
DISCID=5a113b18
DTITLE=Big Joe Williams - Ramblin' and Wanderin': The Best Of Big Joe Wi
DTITLE=lliams
DYEAR=1997
DGENRE=Blues
TTITLE0=Nobody Knows You When You're Down and Out
TTITLE1=Baby Please Don't Go
TTITLE2=Sinking Blues
TTITLE3=Put On Your Nightcap Baby
TTITLE4=Bye Bye Baby Blues
TTITLE5=Don't Want No Evil Woman
TTITLE6=Ride In My New Car Blues
TTITLE7=Goin' Away Won't Be Back Till Fall
TTITLE8=Sloppy Drunk Blues
TTITLE9=Sugar Mama
TTITLE10=44 Blues
TTITLE11=Terraplane Blues
TTITLE12=Razor Sharp Blues
TTITLE13=Chain Gang Blues
TTITLE14=Everybody's Blues
TTITLE15=Great Gospel Blues (Right On That Shore)
TTITLE16=I've Been Scorned
TTITLE17=Shake'em On Down
TTITLE18=Saturday Night Jump
TTITLE19=Pick A Pickle
TTITLE20=Ramblin' and Wandering Blues
TTITLE21=Old Saw Mill Blues
TTITLE22=El Paso Blues
TTITLE23=Don't You Leave Me Here
EXTD=
EXTT0=
EXTT1=
EXTT2=
EXTT3=
EXTT4=
EXTT5=
EXTT6=
EXTT7=
EXTT8=
EXTT9=
EXTT10=
EXTT11=
EXTT12=
EXTT13=
EXTT14=
EXTT15=
EXTT16=
EXTT17=
EXTT18=
EXTT19=
EXTT20=
EXTT21=
EXTT22=
EXTT23=
PLAYORDER=
